<svg xmlns="http://www.w3.org/2000/svg" viewBox="0 0 1142.98 232.78"><title>checked</title><g id="Layer_2" data-name="Layer 2"><g id="Capa_1" data-name="Capa 1"><path d="M359.32,174.3c.84,4.58-.62,6.88-4.87,7.88a129.84,129.84,0,0,1-26.17,2.58c-30.43.15-46.53-12.38-46.68-43.47v-2.78C281.44,110,294.3,94.92,320.31,94.8c25.69-.12,38.68,12.57,39,41.87v2.13c0,4.75-1.93,7.21-6.51,7.23l-50.56.24c1.23,17.34,9.28,23.52,28.58,23.43a119.6,119.6,0,0,0,21.59-2.07c4.26-.51,5.9,1.12,6.57,4.72Zm-57.31-41,38.78-.19c-.4-15.22-6.49-23.37-19.1-23.31C308.94,109.9,302.92,117.79,302,133.34Z" style="fill:#f3910c"/><path d="M501.5,175.57c0,4.75-2.09,6.72-6.67,6.74l-6.22,0c-4.58,0-6.55-1.93-6.57-6.68l-.22-46.47c-.06-11.62-5-19.12-16.62-19.07-5.57,0-13.41,3-17,5.48l.29,60.22c0,4.75-2.1,6.72-6.67,6.74l-6.22,0c-4.58,0-6.72-1.93-6.74-6.68l-.26-53.51c-.53-7.36-5.63-12.08-16.43-12a47.45,47.45,0,0,0-17.16,4l.3,61.69c0,4.75-1.93,6.72-6.52,6.74l-6.21,0c-4.58,0-6.72-1.93-6.75-6.68l-.32-65.62c0-4.58,1.92-7.86,6.5-9.36a80.76,80.76,0,0,1,31.88-6.86c10.63-.05,18.66,2,24.25,5.94,8.82-3.64,19.44-6.15,28.77-6.19C490.8,94,501.17,107,501.27,127.3Z" style="fill:#f3910c"/><path d="M539.3,181.12l.14,28.47c0,4.58-1.93,6.55-6.52,6.57l-6.21,0c-4.58,0-6.72-1.93-6.75-6.51l-.5-103.58c0-6.55,3.56-7.71,6.67-8.54,5.38-2.32,17.49-3.85,27.47-3.9,24.54-.12,44.72,10.26,44.87,41.67v2.13c.14,29.13-12.54,46-37.58,46.17A97.54,97.54,0,0,1,539.3,181.12ZM578,135.6c-.09-19.31-10.6-26.95-24.35-26.88a56.42,56.42,0,0,0-14.71,2.2l.27,55.31A54.47,54.47,0,0,0,555,168.61c15.88-.08,23.18-11.4,23.08-31.2Z" style="fill:#f3910c"/><path d="M647.25,173.73c.35,4.74-.79,5.73-4.88,6.57a35.32,35.32,0,0,1-9.65,1.36c-11.62.06-18.36-5.31-18.44-23.15l-.44-92c0-4.74,1.93-6.72,6.52-6.74l6.22,0c4.58,0,6.72,1.93,6.74,6.68l.44,91.8c0,6.05,1.35,8.34,5.28,8.32,1.14,0,3.43-.67,4.25-.68,2.62-.18,3.61,2.11,3.79,5.22Z" style="fill:#f3910c"/><path d="M730.53,172.5c.84,4.58-.62,6.88-4.87,7.88A129.85,129.85,0,0,1,699.49,183c-30.43.15-46.53-12.38-46.68-43.47v-2.78c-.14-28.47,12.72-43.59,38.73-43.72,25.69-.12,38.68,12.57,39,41.87V137c0,4.75-1.93,7.21-6.51,7.23l-50.56.24c1.23,17.34,9.28,23.52,28.58,23.43a119.58,119.58,0,0,0,21.59-2.07c4.26-.51,5.9,1.12,6.57,4.72Zm-57.31-41,38.78-.19c-.41-15.22-6.49-23.37-19.1-23.31C680.14,108.11,674.14,116,673.22,131.54Z" style="fill:#f3910c"/><path d="M744.25,136.27c-.14-28.8,14.35-43.6,41.19-43.73s41.64,14.53,41.78,43.33v2.78c.14,28.8-14.52,43.76-41.35,43.89s-41.47-14.69-41.61-43.49Zm62.34-.14c-.09-18.66-7.18-28.6-21.08-28.54-14.07.07-20.9,10.08-20.81,28.58v2.62c.09,18.33,7,28.77,21.08,28.7,13.91-.07,20.89-10.74,20.81-28.9Z" style="fill:#f3910c"/><path d="M875.81,172.62c.35,4.74-.79,5.73-4.88,6.57a35.32,35.32,0,0,1-9.65,1.36c-11.62.06-18.36-5.31-18.44-23.15l-.44-92c0-4.74,1.93-6.72,6.52-6.74l6.22,0c4.58,0,6.72,1.93,6.74,6.68l.44,91.8c0,6.05,1.35,8.34,5.28,8.32,1.14,0,3.43-.67,4.25-.68,2.62-.18,3.61,2.11,3.79,5.22Z" style="fill:#55565a"/><path d="M892.71,82.37c-4.75,0-6.72-2.1-6.75-6.68l0-7.53c0-4.74,1.93-6.72,6.68-6.74l7.2,0c4.74,0,6.72,1.93,6.74,6.67l0,7.53c0,4.58-1.93,6.72-6.67,6.74Zm26.77,88.24c.68,4.41,0,7.2-4.21,8.36a29.19,29.19,0,0,1-9.32,1.36c-11.62.06-19-4.16-19.1-23.15l-.27-56.78c0-4.74,1.93-6.72,6.67-6.74l6.05,0c4.75,0,6.72,1.93,6.75,6.67l.27,56.62c0,6.05,1.34,8.34,5.28,8.32a31,31,0,0,0,4.09-.68c1.79-.33,2.95,1.3,3.46,5.06Z" style="fill:#55565a"/><path d="M990.49,101.7c-.46,6.39-1.6,7-5.53,6.41a80.49,80.49,0,0,0-16.87-1.39c-11.29.05-20.45,1.57-20.41,9.1.08,16.53,46.33,4.69,46.5,39,.1,20.95-19.5,26.93-36.36,27a191.82,191.82,0,0,1-24.4-1.84c-5.24-.63-6.22-1.77-6.25-7.17v-1c0-6.71,2.58-7.37,7.17-6.9a126.7,126.7,0,0,0,21.11,1.7c14.24-.07,19-4.84,18.93-11.38-.1-21.44-46.35-8.12-46.5-39.7-.1-20.29,17.56-24,36.71-24.07a114.34,114.34,0,0,1,21.28,1.7c4.1.63,5.57,1.44,4.95,7.18Z" style="fill:#55565a"/><path d="M1012.43,107.81l-3.27,0c-4.59,0-6.56-1.94-6.58-6.68V99.84c0-4.74,1.93-6.72,6.52-6.74l3.27,0-.06-11.95c0-4.74,2.09-6.72,6.67-6.74l6.05,0c4.74,0,6.72,1.93,6.74,6.68l.06,11.95,11.46-.06c4.74,0,6.72,1.93,6.74,6.67v1.31c0,4.74-1.93,6.72-6.67,6.74l-11.46.06.22,44.5c0,7.37,3,12.43,10.7,12.39a26.78,26.78,0,0,0,5.88-.68c2.78-.51,4.1,2.27,4.12,6.36v2.29c0,4.26-1.28,5.9-5.37,6.24a29.78,29.78,0,0,1-6.54.85c-19.8.1-28.18-8-28.28-27.19Z" style="fill:#55565a"/><path d="M1060,134.75c-.14-28.8,14.35-43.6,41.19-43.73s41.64,14.53,41.78,43.33v2.78c.14,28.8-14.52,43.76-41.35,43.89s-41.47-14.69-41.61-43.49Zm62.34-.14c-.09-18.66-7.18-28.6-21.08-28.54-14.07.07-20.9,10.08-20.81,28.58v2.62c.09,18.33,7,28.77,21.08,28.7,13.91-.07,20.89-10.74,20.81-28.9Z" style="fill:#55565a"/><circle cx="119.42" cy="116.39" r="116.39" style="fill:#f3910c"/><path d="M1.7,144.19C19.76,155.85,29.21,158,44.78,182.41s18.29,41.07,22.39,44.13,24.58-.76,35.24-6.11,11.05-8.3,21-30c13.79-30.06,36.19-67,53.4-88.35s53.44-49.52,55.08-54.87-15.57-7.83-32-3.25S149,84,128.16,111.81C105,142.75,96.77,168.87,92.68,168.1s-12.1-16.34-23.58-27.8-23.56-19.22-37.49-16.93S-6.64,138.82,1.7,144.19Z" style="fill:#fff"/></g></g></svg>